G04 EAGLE Gerber RS-274X export*
G75*
%MOMM*%
%FSLAX34Y34*%
%LPD*%
%INSoldermask Top*%
%IPPOS*%
%AMOC8*
5,1,8,0,0,1.08239X$1,22.5*%
G01*
G04 Define Apertures*
%ADD10R,1.353200X2.003200*%
%ADD11R,0.483200X0.633200*%
%ADD12R,0.903200X1.103200*%
%ADD13R,0.423200X0.433200*%
%ADD14R,1.353200X1.003200*%
%ADD15R,1.403200X0.803200*%
%ADD16R,1.003200X1.103200*%
%ADD17C,0.403200*%
%ADD18C,0.453200*%
%ADD19R,0.503200X0.553200*%
%ADD20R,0.553200X0.503200*%
%ADD21C,0.419200*%
%ADD22R,0.903200X0.503200*%
%ADD23R,1.203200X0.503200*%
%ADD24C,0.986200*%
%ADD25C,2.654200*%
%ADD26C,1.270200*%
%ADD27R,0.503200X1.353200*%
%ADD28C,0.903200*%
%ADD29R,0.803200X1.353200*%
%ADD30C,1.361200*%
%ADD31R,0.703200X0.803200*%
%ADD32R,1.403200X2.403200*%
%ADD33R,1.253200X0.703200*%
%ADD34R,0.553200X0.453200*%
%ADD35R,0.152400X1.828800*%
%ADD36R,1.371600X1.803400*%
%ADD37R,0.914400X1.295400*%
%ADD38R,1.270000X1.270000*%
%ADD39R,1.600200X1.295400*%
%ADD40C,2.203200*%
%ADD41R,5.053200X5.053200*%
%ADD42C,0.269722*%
%ADD43R,1.103200X1.503200*%
%ADD44R,1.153200X1.053200*%
%ADD45R,1.203200X2.003200*%
G36*
X488971Y1506879D02*
X490200Y1507000D01*
X491429Y1506879D01*
X492611Y1506521D01*
X493700Y1505938D01*
X494655Y1505155D01*
X495438Y1504200D01*
X496021Y1503111D01*
X496379Y1501929D01*
X496500Y1500702D01*
X496500Y1489698D01*
X496379Y1488471D01*
X496021Y1487289D01*
X495438Y1486200D01*
X494655Y1485245D01*
X493700Y1484462D01*
X492611Y1483879D01*
X491429Y1483521D01*
X490200Y1483400D01*
X488971Y1483521D01*
X487789Y1483879D01*
X486700Y1484462D01*
X485745Y1485245D01*
X484962Y1486200D01*
X484379Y1487289D01*
X484021Y1488471D01*
X483900Y1489698D01*
X483900Y1500702D01*
X484021Y1501929D01*
X484379Y1503111D01*
X484962Y1504200D01*
X485745Y1505155D01*
X486700Y1505938D01*
X487789Y1506521D01*
X488971Y1506879D01*
G37*
G36*
X575371Y1506879D02*
X576600Y1507000D01*
X577829Y1506879D01*
X579011Y1506521D01*
X580100Y1505938D01*
X581055Y1505155D01*
X581838Y1504200D01*
X582421Y1503111D01*
X582779Y1501929D01*
X582900Y1500702D01*
X582900Y1489698D01*
X582779Y1488471D01*
X582421Y1487289D01*
X581838Y1486200D01*
X581055Y1485245D01*
X580100Y1484462D01*
X579011Y1483879D01*
X577829Y1483521D01*
X576600Y1483400D01*
X575371Y1483521D01*
X574189Y1483879D01*
X573100Y1484462D01*
X572145Y1485245D01*
X571362Y1486200D01*
X570779Y1487289D01*
X570421Y1488471D01*
X570300Y1489698D01*
X570300Y1500702D01*
X570421Y1501929D01*
X570779Y1503111D01*
X571362Y1504200D01*
X572145Y1505155D01*
X573100Y1505938D01*
X574189Y1506521D01*
X575371Y1506879D01*
G37*
G36*
X488971Y1546879D02*
X490200Y1547000D01*
X491429Y1546879D01*
X492611Y1546521D01*
X493700Y1545938D01*
X494655Y1545155D01*
X495438Y1544200D01*
X496021Y1543111D01*
X496379Y1541929D01*
X496500Y1540702D01*
X496500Y1532698D01*
X496379Y1531471D01*
X496021Y1530289D01*
X495438Y1529200D01*
X494655Y1528245D01*
X493700Y1527462D01*
X492611Y1526879D01*
X491429Y1526521D01*
X490200Y1526400D01*
X488971Y1526521D01*
X487789Y1526879D01*
X486700Y1527462D01*
X485745Y1528245D01*
X484962Y1529200D01*
X484379Y1530289D01*
X484021Y1531471D01*
X483900Y1532698D01*
X483900Y1540702D01*
X484021Y1541929D01*
X484379Y1543111D01*
X484962Y1544200D01*
X485745Y1545155D01*
X486700Y1545938D01*
X487789Y1546521D01*
X488971Y1546879D01*
G37*
G36*
X575371Y1546879D02*
X576600Y1547000D01*
X577829Y1546879D01*
X579011Y1546521D01*
X580100Y1545938D01*
X581055Y1545155D01*
X581838Y1544200D01*
X582421Y1543111D01*
X582779Y1541929D01*
X582900Y1540702D01*
X582900Y1532698D01*
X582779Y1531471D01*
X582421Y1530289D01*
X581838Y1529200D01*
X581055Y1528245D01*
X580100Y1527462D01*
X579011Y1526879D01*
X577829Y1526521D01*
X576600Y1526400D01*
X575371Y1526521D01*
X574189Y1526879D01*
X573100Y1527462D01*
X572145Y1528245D01*
X571362Y1529200D01*
X570779Y1530289D01*
X570421Y1531471D01*
X570300Y1532698D01*
X570300Y1540702D01*
X570421Y1541929D01*
X570779Y1543111D01*
X571362Y1544200D01*
X572145Y1545155D01*
X573100Y1545938D01*
X574189Y1546521D01*
X575371Y1546879D01*
G37*
G36*
X395923Y1218438D02*
X395923Y1225296D01*
X407607Y1225296D01*
X407607Y1218438D01*
X395923Y1218438D01*
G37*
G36*
X430593Y1218438D02*
X430593Y1225296D01*
X442277Y1225296D01*
X442277Y1218438D01*
X430593Y1218438D01*
G37*
G36*
X497523Y1218438D02*
X497523Y1225296D01*
X509207Y1225296D01*
X509207Y1218438D01*
X497523Y1218438D01*
G37*
G36*
X532193Y1218438D02*
X532193Y1225296D01*
X543877Y1225296D01*
X543877Y1218438D01*
X532193Y1218438D01*
G37*
G36*
X611823Y1218438D02*
X611823Y1225296D01*
X623507Y1225296D01*
X623507Y1218438D01*
X611823Y1218438D01*
G37*
G36*
X646493Y1218438D02*
X646493Y1225296D01*
X658177Y1225296D01*
X658177Y1218438D01*
X646493Y1218438D01*
G37*
D10*
X708900Y1358900D03*
X738900Y1358900D03*
D11*
X695950Y1371600D03*
X701050Y1371600D03*
X429250Y1460500D03*
X434350Y1460500D03*
X632450Y1397000D03*
X637550Y1397000D03*
X607050Y1397000D03*
X612150Y1397000D03*
X581650Y1409700D03*
X586750Y1409700D03*
X607050Y1422400D03*
X612150Y1422400D03*
D12*
X501500Y1422400D03*
X514500Y1422400D03*
D11*
X568950Y1447800D03*
X574050Y1447800D03*
X594350Y1447800D03*
X599450Y1447800D03*
X441950Y1409700D03*
X447050Y1409700D03*
X441950Y1384300D03*
X447050Y1384300D03*
X683250Y1536700D03*
X688350Y1536700D03*
X695950Y1422400D03*
X701050Y1422400D03*
X353050Y1485900D03*
X358150Y1485900D03*
D12*
X488800Y1308100D03*
X501800Y1308100D03*
X501500Y1282700D03*
X514500Y1282700D03*
D11*
X721350Y1333500D03*
X726450Y1333500D03*
D13*
X468050Y1473200D03*
X471750Y1473200D03*
D12*
X450700Y1460500D03*
X463700Y1460500D03*
X501500Y1460500D03*
X514500Y1460500D03*
D13*
X429950Y1511300D03*
X433650Y1511300D03*
X417250Y1270000D03*
X420950Y1270000D03*
D11*
X657850Y1358900D03*
X662950Y1358900D03*
D13*
X633150Y1270000D03*
X636850Y1270000D03*
X518850Y1270000D03*
X522550Y1270000D03*
X341050Y1257300D03*
X344750Y1257300D03*
D12*
X501500Y1447800D03*
X514500Y1447800D03*
D11*
X353050Y1231900D03*
X358150Y1231900D03*
D13*
X493450Y1473200D03*
X497150Y1473200D03*
X455350Y1498600D03*
X459050Y1498600D03*
D11*
X403850Y1460500D03*
X408950Y1460500D03*
X695950Y1333500D03*
X701050Y1333500D03*
D13*
X607750Y1498600D03*
X611450Y1498600D03*
D12*
X603100Y1473200D03*
X616100Y1473200D03*
D11*
X467350Y1422400D03*
X472450Y1422400D03*
X480050Y1333500D03*
X485150Y1333500D03*
X543550Y1295400D03*
X548650Y1295400D03*
X619750Y1333500D03*
X624850Y1333500D03*
X632450Y1358900D03*
X637550Y1358900D03*
D14*
X325400Y1498600D03*
X360400Y1498600D03*
D15*
X597100Y1533500D03*
X597100Y1524000D03*
X597100Y1514500D03*
X622100Y1514500D03*
X622100Y1524000D03*
X622100Y1533500D03*
D14*
X376200Y1498600D03*
X411200Y1498600D03*
X312700Y1473200D03*
X347700Y1473200D03*
D16*
X447700Y1514000D03*
X466700Y1514000D03*
X457200Y1535000D03*
D12*
X412600Y1435100D03*
X425600Y1435100D03*
X412600Y1358900D03*
X425600Y1358900D03*
X412600Y1346200D03*
X425600Y1346200D03*
X412600Y1333500D03*
X425600Y1333500D03*
X412600Y1447800D03*
X425600Y1447800D03*
X412600Y1422400D03*
X425600Y1422400D03*
X412600Y1409700D03*
X425600Y1409700D03*
X412600Y1397000D03*
X425600Y1397000D03*
X412600Y1384300D03*
X425600Y1384300D03*
X412600Y1371600D03*
X425600Y1371600D03*
D17*
X455200Y1491900D03*
X459200Y1491900D03*
X455200Y1487900D03*
X459200Y1487900D03*
X455200Y1483900D03*
X459200Y1483900D03*
X455200Y1479900D03*
X459200Y1479900D03*
D18*
X337900Y1249600D03*
X342900Y1249600D03*
X347900Y1249600D03*
X337900Y1244600D03*
X342900Y1244600D03*
X347900Y1244600D03*
X337900Y1239600D03*
X342900Y1239600D03*
X347900Y1239600D03*
D19*
X678300Y1503550D03*
X683300Y1503550D03*
X688300Y1503550D03*
X693300Y1503550D03*
D20*
X693550Y1508800D03*
X693550Y1513800D03*
D19*
X693300Y1519050D03*
X688300Y1519050D03*
X683300Y1519050D03*
X678300Y1519050D03*
D20*
X678050Y1513800D03*
X678050Y1508800D03*
D21*
X478600Y1455800D03*
X482600Y1455800D03*
X486600Y1455800D03*
X478600Y1451800D03*
X482600Y1451800D03*
X486600Y1451800D03*
X478600Y1447800D03*
X482600Y1447800D03*
X486600Y1447800D03*
X478600Y1443800D03*
X482600Y1443800D03*
X486600Y1443800D03*
X478600Y1439800D03*
X482600Y1439800D03*
X486600Y1439800D03*
D22*
X396250Y1441800D03*
X396250Y1436800D03*
X396250Y1431800D03*
X396250Y1426800D03*
X396250Y1421800D03*
X396250Y1416800D03*
X396250Y1411800D03*
X396250Y1406800D03*
X396250Y1401800D03*
X396250Y1396800D03*
X396250Y1391800D03*
X396250Y1386800D03*
X396250Y1381800D03*
X396250Y1376800D03*
X396250Y1371800D03*
X396250Y1366800D03*
X396250Y1361800D03*
X396250Y1356800D03*
X396250Y1351800D03*
X396250Y1346800D03*
X396250Y1341800D03*
X396250Y1336800D03*
X396250Y1331800D03*
X396250Y1326800D03*
D23*
X369750Y1449700D03*
X369750Y1318900D03*
D24*
X701670Y1263650D03*
X701670Y1276350D03*
X714370Y1263650D03*
X714370Y1276350D03*
X727080Y1263650D03*
X727080Y1276350D03*
D25*
X688970Y1244600D03*
D26*
X688970Y1270000D03*
D25*
X688970Y1295400D03*
X720720Y1244600D03*
X720720Y1295400D03*
D26*
X739770Y1259840D03*
X739770Y1280160D03*
D27*
X535900Y1489450D03*
X540900Y1489450D03*
X545900Y1489450D03*
X550900Y1489450D03*
X530900Y1489450D03*
X525900Y1489450D03*
X520900Y1489450D03*
X515900Y1489450D03*
D28*
X562300Y1500200D03*
X504500Y1500200D03*
D29*
X565400Y1489450D03*
X557400Y1489450D03*
X509400Y1489450D03*
X501400Y1489450D03*
D30*
X576600Y1536700D03*
X490200Y1536700D03*
X576600Y1495200D03*
X490200Y1495200D03*
D31*
X680800Y1346200D03*
X690800Y1346200D03*
X541100Y1435100D03*
X551100Y1435100D03*
X541100Y1447800D03*
X551100Y1447800D03*
X439500Y1485900D03*
X449500Y1485900D03*
D32*
X485020Y1358900D03*
X505580Y1358900D03*
D33*
X421300Y1479700D03*
X421300Y1466700D03*
X442300Y1473200D03*
D34*
X660400Y1488650D03*
X660400Y1483150D03*
X660400Y1463250D03*
X660400Y1457750D03*
X431800Y1501350D03*
X431800Y1495850D03*
X546100Y1475950D03*
X546100Y1470450D03*
X469900Y1437850D03*
X469900Y1432350D03*
X406400Y1488650D03*
X406400Y1483150D03*
X520700Y1475950D03*
X520700Y1470450D03*
X673100Y1488650D03*
X673100Y1483150D03*
X469900Y1450550D03*
X469900Y1445050D03*
X419100Y1260050D03*
X419100Y1254550D03*
X635000Y1260050D03*
X635000Y1254550D03*
X520700Y1260050D03*
X520700Y1254550D03*
X457200Y1450550D03*
X457200Y1445050D03*
X444500Y1539450D03*
X444500Y1533950D03*
X406400Y1475950D03*
X406400Y1470450D03*
D35*
X381000Y1473200D03*
D36*
X373380Y1473200D03*
X388620Y1473200D03*
D37*
X649002Y1241615D03*
X620998Y1241615D03*
D38*
X653478Y1228090D03*
X616522Y1228090D03*
D39*
X635000Y1243139D03*
D37*
X534702Y1241615D03*
X506698Y1241615D03*
D38*
X539178Y1228090D03*
X502222Y1228090D03*
D39*
X520700Y1243139D03*
D37*
X433102Y1241615D03*
X405098Y1241615D03*
D38*
X437578Y1228090D03*
X400622Y1228090D03*
D39*
X419100Y1243139D03*
D40*
X698500Y1485900D03*
X711200Y1524000D03*
X342900Y1524000D03*
X698500Y1460500D03*
X355600Y1270000D03*
X330200Y1282700D03*
X723900Y1397000D03*
X660400Y1511300D03*
X723900Y1498600D03*
X723900Y1422400D03*
X723900Y1447800D03*
X723900Y1473200D03*
X368300Y1524000D03*
X546100Y1409700D03*
D41*
X558800Y1358900D03*
D17*
X531300Y1358900D03*
X531300Y1363900D03*
X531300Y1368900D03*
X531300Y1373900D03*
X531300Y1378900D03*
X526300Y1381400D03*
X526300Y1371400D03*
X526300Y1366400D03*
X526300Y1361400D03*
X526300Y1356400D03*
X531300Y1353900D03*
X531300Y1348900D03*
X526300Y1351400D03*
X526300Y1346400D03*
X526300Y1341400D03*
X531300Y1338900D03*
X531300Y1333900D03*
X531300Y1326400D03*
X536300Y1326400D03*
X538800Y1331400D03*
X541300Y1326400D03*
X546300Y1326400D03*
X551300Y1326400D03*
X556300Y1326400D03*
X561300Y1326400D03*
X566300Y1326400D03*
X571300Y1326400D03*
X576300Y1326400D03*
X581300Y1326400D03*
X586300Y1326400D03*
X578800Y1331400D03*
X573800Y1331400D03*
X568800Y1331400D03*
X563800Y1331400D03*
X558800Y1331400D03*
X553800Y1331400D03*
X548800Y1331400D03*
X586300Y1338900D03*
X591300Y1336400D03*
X591300Y1331400D03*
X591300Y1341400D03*
X586300Y1343900D03*
X591300Y1346400D03*
X586300Y1348900D03*
X586300Y1353900D03*
X591300Y1351400D03*
X591300Y1356400D03*
X591300Y1361400D03*
X591300Y1366400D03*
X586300Y1368900D03*
X586300Y1373900D03*
X591300Y1376400D03*
X586300Y1378900D03*
X591300Y1386400D03*
X526300Y1386400D03*
X538800Y1386400D03*
X543800Y1386400D03*
X548800Y1386400D03*
X551300Y1391400D03*
X553800Y1386400D03*
X556300Y1391400D03*
X558800Y1386400D03*
X561300Y1391400D03*
X563800Y1386400D03*
X566300Y1391400D03*
X568800Y1386400D03*
X571300Y1391400D03*
X573800Y1386400D03*
X576300Y1391400D03*
X581300Y1391400D03*
X586300Y1391400D03*
X533800Y1386400D03*
X546300Y1391400D03*
D42*
X400018Y1530482D02*
X393082Y1530482D01*
X393082Y1532518D01*
X400018Y1532518D01*
X400018Y1530482D01*
X400018Y1525482D02*
X393082Y1525482D01*
X393082Y1527518D01*
X400018Y1527518D01*
X400018Y1525482D01*
X400018Y1520482D02*
X393082Y1520482D01*
X393082Y1522518D01*
X400018Y1522518D01*
X400018Y1520482D01*
X400018Y1515482D02*
X393082Y1515482D01*
X393082Y1517518D01*
X400018Y1517518D01*
X400018Y1515482D01*
X412782Y1515482D02*
X419718Y1515482D01*
X412782Y1515482D02*
X412782Y1517518D01*
X419718Y1517518D01*
X419718Y1515482D01*
X419718Y1520482D02*
X412782Y1520482D01*
X412782Y1522518D01*
X419718Y1522518D01*
X419718Y1520482D01*
X419718Y1525482D02*
X412782Y1525482D01*
X412782Y1527518D01*
X419718Y1527518D01*
X419718Y1525482D01*
X419718Y1530482D02*
X412782Y1530482D01*
X412782Y1532518D01*
X419718Y1532518D01*
X419718Y1530482D01*
D43*
X406400Y1524000D03*
D44*
X665850Y1391250D03*
X680350Y1391250D03*
X680350Y1402750D03*
X665850Y1402750D03*
D45*
X470100Y1397000D03*
X495100Y1397000D03*
M02*
