G04 EAGLE Gerber RS-274X export*
G75*
%MOMM*%
%FSLAX34Y34*%
%LPD*%
%IN*%
%IPPOS*%
%AMOC8*
5,1,8,0,0,1.08239X$1,22.5*%
G01*
G04 Define Apertures*
%ADD10C,0.254000*%
D10*
X296000Y1275300D02*
X296266Y1269199D01*
X297063Y1263145D01*
X298385Y1257183D01*
X300222Y1251359D01*
X302558Y1245717D01*
X305378Y1240300D01*
X308659Y1235150D01*
X312377Y1230305D01*
X316503Y1225803D01*
X321005Y1221677D01*
X325850Y1217959D01*
X331000Y1214678D01*
X336417Y1211858D01*
X342059Y1209522D01*
X347883Y1207685D01*
X353845Y1206363D01*
X359899Y1205566D01*
X366000Y1205300D01*
X392000Y1205300D01*
X392000Y1223300D01*
X440000Y1223300D01*
X440000Y1205300D01*
X502000Y1205300D01*
X502000Y1223300D01*
X537300Y1223300D01*
X537300Y1205300D01*
X612000Y1205300D01*
X612000Y1223300D01*
X660000Y1223300D01*
X660000Y1205300D01*
X686000Y1205300D01*
X692101Y1205566D01*
X698155Y1206363D01*
X704117Y1207685D01*
X709941Y1209522D01*
X715583Y1211858D01*
X721000Y1214678D01*
X726150Y1217959D01*
X730995Y1221677D01*
X735497Y1225803D01*
X739623Y1230305D01*
X743341Y1235150D01*
X746622Y1240300D01*
X749442Y1245717D01*
X751778Y1251359D01*
X753615Y1257183D01*
X754937Y1263145D01*
X755734Y1269199D01*
X756000Y1275300D01*
X756000Y1485300D01*
X755734Y1491401D01*
X754937Y1497455D01*
X753615Y1503417D01*
X751778Y1509241D01*
X749442Y1514883D01*
X746622Y1520300D01*
X743341Y1525450D01*
X739623Y1530295D01*
X735497Y1534797D01*
X730995Y1538923D01*
X726150Y1542641D01*
X721000Y1545922D01*
X715583Y1548742D01*
X709941Y1551078D01*
X704117Y1552915D01*
X698155Y1554237D01*
X692101Y1555034D01*
X686000Y1555300D01*
X366000Y1555300D01*
X359899Y1555034D01*
X353845Y1554237D01*
X347883Y1552915D01*
X342059Y1551078D01*
X336417Y1548742D01*
X331000Y1545922D01*
X325850Y1542641D01*
X321005Y1538923D01*
X316503Y1534797D01*
X312377Y1530295D01*
X308659Y1525450D01*
X305378Y1520300D01*
X302558Y1514883D01*
X300222Y1509241D01*
X298385Y1503417D01*
X297063Y1497455D01*
X296266Y1491401D01*
X296000Y1485300D01*
X296000Y1449300D01*
X366000Y1449300D01*
X366000Y1311300D01*
X296000Y1311300D01*
X296000Y1275300D01*
X486950Y1489700D02*
X486962Y1489417D01*
X486999Y1489136D01*
X487061Y1488859D01*
X487146Y1488588D01*
X487255Y1488327D01*
X487385Y1488075D01*
X487538Y1487836D01*
X487710Y1487611D01*
X487902Y1487402D01*
X488111Y1487210D01*
X488336Y1487038D01*
X488575Y1486885D01*
X488827Y1486755D01*
X489088Y1486646D01*
X489359Y1486561D01*
X489636Y1486499D01*
X489917Y1486462D01*
X490200Y1486450D01*
X490483Y1486462D01*
X490764Y1486499D01*
X491041Y1486561D01*
X491312Y1486646D01*
X491574Y1486755D01*
X491825Y1486885D01*
X492064Y1487038D01*
X492289Y1487210D01*
X492498Y1487402D01*
X492690Y1487611D01*
X492862Y1487836D01*
X493015Y1488075D01*
X493146Y1488327D01*
X493254Y1488588D01*
X493339Y1488859D01*
X493401Y1489136D01*
X493438Y1489417D01*
X493450Y1489700D01*
X493450Y1500700D01*
X493438Y1500983D01*
X493401Y1501264D01*
X493339Y1501541D01*
X493254Y1501812D01*
X493146Y1502074D01*
X493015Y1502325D01*
X492862Y1502564D01*
X492690Y1502789D01*
X492498Y1502998D01*
X492289Y1503190D01*
X492064Y1503362D01*
X491825Y1503515D01*
X491574Y1503646D01*
X491312Y1503754D01*
X491041Y1503839D01*
X490764Y1503901D01*
X490483Y1503938D01*
X490200Y1503950D01*
X489917Y1503938D01*
X489636Y1503901D01*
X489359Y1503839D01*
X489088Y1503754D01*
X488827Y1503646D01*
X488575Y1503515D01*
X488336Y1503362D01*
X488111Y1503190D01*
X487902Y1502998D01*
X487710Y1502789D01*
X487538Y1502564D01*
X487385Y1502325D01*
X487255Y1502074D01*
X487146Y1501812D01*
X487061Y1501541D01*
X486999Y1501264D01*
X486962Y1500983D01*
X486950Y1500700D01*
X486950Y1489700D01*
X486950Y1532700D02*
X486962Y1532417D01*
X486999Y1532136D01*
X487061Y1531859D01*
X487146Y1531588D01*
X487255Y1531327D01*
X487385Y1531075D01*
X487538Y1530836D01*
X487710Y1530611D01*
X487902Y1530402D01*
X488111Y1530210D01*
X488336Y1530038D01*
X488575Y1529885D01*
X488827Y1529755D01*
X489088Y1529646D01*
X489359Y1529561D01*
X489636Y1529499D01*
X489917Y1529462D01*
X490200Y1529450D01*
X490483Y1529462D01*
X490764Y1529499D01*
X491041Y1529561D01*
X491312Y1529646D01*
X491574Y1529755D01*
X491825Y1529885D01*
X492064Y1530038D01*
X492289Y1530210D01*
X492498Y1530402D01*
X492690Y1530611D01*
X492862Y1530836D01*
X493015Y1531075D01*
X493146Y1531327D01*
X493254Y1531588D01*
X493339Y1531859D01*
X493401Y1532136D01*
X493438Y1532417D01*
X493450Y1532700D01*
X493450Y1540700D01*
X493438Y1540983D01*
X493401Y1541264D01*
X493339Y1541541D01*
X493254Y1541812D01*
X493146Y1542074D01*
X493015Y1542325D01*
X492862Y1542564D01*
X492690Y1542789D01*
X492498Y1542998D01*
X492289Y1543190D01*
X492064Y1543362D01*
X491825Y1543515D01*
X491574Y1543646D01*
X491312Y1543754D01*
X491041Y1543839D01*
X490764Y1543901D01*
X490483Y1543938D01*
X490200Y1543950D01*
X489917Y1543938D01*
X489636Y1543901D01*
X489359Y1543839D01*
X489088Y1543754D01*
X488827Y1543646D01*
X488575Y1543515D01*
X488336Y1543362D01*
X488111Y1543190D01*
X487902Y1542998D01*
X487710Y1542789D01*
X487538Y1542564D01*
X487385Y1542325D01*
X487255Y1542074D01*
X487146Y1541812D01*
X487061Y1541541D01*
X486999Y1541264D01*
X486962Y1540983D01*
X486950Y1540700D01*
X486950Y1532700D01*
X573350Y1489700D02*
X573362Y1489417D01*
X573399Y1489136D01*
X573461Y1488859D01*
X573546Y1488588D01*
X573655Y1488327D01*
X573785Y1488075D01*
X573938Y1487836D01*
X574110Y1487611D01*
X574302Y1487402D01*
X574511Y1487210D01*
X574736Y1487038D01*
X574975Y1486885D01*
X575227Y1486755D01*
X575488Y1486646D01*
X575759Y1486561D01*
X576036Y1486499D01*
X576317Y1486462D01*
X576600Y1486450D01*
X576883Y1486462D01*
X577164Y1486499D01*
X577441Y1486561D01*
X577712Y1486646D01*
X577974Y1486755D01*
X578225Y1486885D01*
X578464Y1487038D01*
X578689Y1487210D01*
X578898Y1487402D01*
X579090Y1487611D01*
X579262Y1487836D01*
X579415Y1488075D01*
X579546Y1488327D01*
X579654Y1488588D01*
X579739Y1488859D01*
X579801Y1489136D01*
X579838Y1489417D01*
X579850Y1489700D01*
X579850Y1500700D01*
X579838Y1500983D01*
X579801Y1501264D01*
X579739Y1501541D01*
X579654Y1501812D01*
X579546Y1502074D01*
X579415Y1502325D01*
X579262Y1502564D01*
X579090Y1502789D01*
X578898Y1502998D01*
X578689Y1503190D01*
X578464Y1503362D01*
X578225Y1503515D01*
X577974Y1503646D01*
X577712Y1503754D01*
X577441Y1503839D01*
X577164Y1503901D01*
X576883Y1503938D01*
X576600Y1503950D01*
X576317Y1503938D01*
X576036Y1503901D01*
X575759Y1503839D01*
X575488Y1503754D01*
X575227Y1503646D01*
X574975Y1503515D01*
X574736Y1503362D01*
X574511Y1503190D01*
X574302Y1502998D01*
X574110Y1502789D01*
X573938Y1502564D01*
X573785Y1502325D01*
X573655Y1502074D01*
X573546Y1501812D01*
X573461Y1501541D01*
X573399Y1501264D01*
X573362Y1500983D01*
X573350Y1500700D01*
X573350Y1489700D01*
X573350Y1532700D02*
X573362Y1532417D01*
X573399Y1532136D01*
X573461Y1531859D01*
X573546Y1531588D01*
X573655Y1531327D01*
X573785Y1531075D01*
X573938Y1530836D01*
X574110Y1530611D01*
X574302Y1530402D01*
X574511Y1530210D01*
X574736Y1530038D01*
X574975Y1529885D01*
X575227Y1529755D01*
X575488Y1529646D01*
X575759Y1529561D01*
X576036Y1529499D01*
X576317Y1529462D01*
X576600Y1529450D01*
X576883Y1529462D01*
X577164Y1529499D01*
X577441Y1529561D01*
X577712Y1529646D01*
X577974Y1529755D01*
X578225Y1529885D01*
X578464Y1530038D01*
X578689Y1530210D01*
X578898Y1530402D01*
X579090Y1530611D01*
X579262Y1530836D01*
X579415Y1531075D01*
X579546Y1531327D01*
X579654Y1531588D01*
X579739Y1531859D01*
X579801Y1532136D01*
X579838Y1532417D01*
X579850Y1532700D01*
X579850Y1540700D01*
X579838Y1540983D01*
X579801Y1541264D01*
X579739Y1541541D01*
X579654Y1541812D01*
X579546Y1542074D01*
X579415Y1542325D01*
X579262Y1542564D01*
X579090Y1542789D01*
X578898Y1542998D01*
X578689Y1543190D01*
X578464Y1543362D01*
X578225Y1543515D01*
X577974Y1543646D01*
X577712Y1543754D01*
X577441Y1543839D01*
X577164Y1543901D01*
X576883Y1543938D01*
X576600Y1543950D01*
X576317Y1543938D01*
X576036Y1543901D01*
X575759Y1543839D01*
X575488Y1543754D01*
X575227Y1543646D01*
X574975Y1543515D01*
X574736Y1543362D01*
X574511Y1543190D01*
X574302Y1542998D01*
X574110Y1542789D01*
X573938Y1542564D01*
X573785Y1542325D01*
X573655Y1542074D01*
X573546Y1541812D01*
X573461Y1541541D01*
X573399Y1541264D01*
X573362Y1540983D01*
X573350Y1540700D01*
X573350Y1532700D01*
M02*
