G04 EAGLE Gerber RS-274X export*
G75*
%MOMM*%
%FSLAX34Y34*%
%LPD*%
%INSoldermask Bottom*%
%IPPOS*%
%AMOC8*
5,1,8,0,0,1.08239X$1,22.5*%
G01*
G04 Define Apertures*
%ADD10C,2.654200*%
%ADD11C,1.270200*%
%ADD12C,0.903200*%
%ADD13C,1.361200*%
%ADD14R,1.270000X1.270000*%
G36*
X488971Y1506879D02*
X490200Y1507000D01*
X491429Y1506879D01*
X492611Y1506521D01*
X493700Y1505938D01*
X494655Y1505155D01*
X495438Y1504200D01*
X496021Y1503111D01*
X496379Y1501929D01*
X496500Y1500702D01*
X496500Y1489698D01*
X496379Y1488471D01*
X496021Y1487289D01*
X495438Y1486200D01*
X494655Y1485245D01*
X493700Y1484462D01*
X492611Y1483879D01*
X491429Y1483521D01*
X490200Y1483400D01*
X488971Y1483521D01*
X487789Y1483879D01*
X486700Y1484462D01*
X485745Y1485245D01*
X484962Y1486200D01*
X484379Y1487289D01*
X484021Y1488471D01*
X483900Y1489698D01*
X483900Y1500702D01*
X484021Y1501929D01*
X484379Y1503111D01*
X484962Y1504200D01*
X485745Y1505155D01*
X486700Y1505938D01*
X487789Y1506521D01*
X488971Y1506879D01*
G37*
G36*
X575371Y1506879D02*
X576600Y1507000D01*
X577829Y1506879D01*
X579011Y1506521D01*
X580100Y1505938D01*
X581055Y1505155D01*
X581838Y1504200D01*
X582421Y1503111D01*
X582779Y1501929D01*
X582900Y1500702D01*
X582900Y1489698D01*
X582779Y1488471D01*
X582421Y1487289D01*
X581838Y1486200D01*
X581055Y1485245D01*
X580100Y1484462D01*
X579011Y1483879D01*
X577829Y1483521D01*
X576600Y1483400D01*
X575371Y1483521D01*
X574189Y1483879D01*
X573100Y1484462D01*
X572145Y1485245D01*
X571362Y1486200D01*
X570779Y1487289D01*
X570421Y1488471D01*
X570300Y1489698D01*
X570300Y1500702D01*
X570421Y1501929D01*
X570779Y1503111D01*
X571362Y1504200D01*
X572145Y1505155D01*
X573100Y1505938D01*
X574189Y1506521D01*
X575371Y1506879D01*
G37*
G36*
X488971Y1546879D02*
X490200Y1547000D01*
X491429Y1546879D01*
X492611Y1546521D01*
X493700Y1545938D01*
X494655Y1545155D01*
X495438Y1544200D01*
X496021Y1543111D01*
X496379Y1541929D01*
X496500Y1540702D01*
X496500Y1532698D01*
X496379Y1531471D01*
X496021Y1530289D01*
X495438Y1529200D01*
X494655Y1528245D01*
X493700Y1527462D01*
X492611Y1526879D01*
X491429Y1526521D01*
X490200Y1526400D01*
X488971Y1526521D01*
X487789Y1526879D01*
X486700Y1527462D01*
X485745Y1528245D01*
X484962Y1529200D01*
X484379Y1530289D01*
X484021Y1531471D01*
X483900Y1532698D01*
X483900Y1540702D01*
X484021Y1541929D01*
X484379Y1543111D01*
X484962Y1544200D01*
X485745Y1545155D01*
X486700Y1545938D01*
X487789Y1546521D01*
X488971Y1546879D01*
G37*
G36*
X575371Y1546879D02*
X576600Y1547000D01*
X577829Y1546879D01*
X579011Y1546521D01*
X580100Y1545938D01*
X581055Y1545155D01*
X581838Y1544200D01*
X582421Y1543111D01*
X582779Y1541929D01*
X582900Y1540702D01*
X582900Y1532698D01*
X582779Y1531471D01*
X582421Y1530289D01*
X581838Y1529200D01*
X581055Y1528245D01*
X580100Y1527462D01*
X579011Y1526879D01*
X577829Y1526521D01*
X576600Y1526400D01*
X575371Y1526521D01*
X574189Y1526879D01*
X573100Y1527462D01*
X572145Y1528245D01*
X571362Y1529200D01*
X570779Y1530289D01*
X570421Y1531471D01*
X570300Y1532698D01*
X570300Y1540702D01*
X570421Y1541929D01*
X570779Y1543111D01*
X571362Y1544200D01*
X572145Y1545155D01*
X573100Y1545938D01*
X574189Y1546521D01*
X575371Y1546879D01*
G37*
D10*
X688970Y1244600D03*
D11*
X688970Y1270000D03*
D10*
X688970Y1295400D03*
X720720Y1244600D03*
X720720Y1295400D03*
D11*
X739770Y1259840D03*
X739770Y1280160D03*
D12*
X562300Y1500200D03*
X504500Y1500200D03*
D13*
X576600Y1536700D03*
X490200Y1536700D03*
X576600Y1495200D03*
X490200Y1495200D03*
D14*
X653478Y1228090D03*
X616522Y1228090D03*
X539178Y1228090D03*
X502222Y1228090D03*
X437578Y1228090D03*
X400622Y1228090D03*
M02*
