M48
;GenerationSoftware,Autodesk,EAGLE,9.7.0*%
;CreationDate,2026-04-10T19:43:12Z*%
FMAT,2
ICI,OFF
METRIC,TZ,000.000
T7C0.300
T6C0.350
T5C0.559
T4C0.650
T3C0.700
T2C1.067
T1C2.451
%
G90
M71
T1
X68897Y124460
X72072Y129540
X72072Y124460
X68897Y129540
T2
X73977Y128016
X73977Y125984
X68897Y127000
T3
X50450Y150020
X56230Y150020
T4
X49020Y149520
X57660Y149520
X49020Y153670
X57660Y153670
T5
X40062Y122809
X43758Y122809
X50222Y122809
X53918Y122809
X61652Y122809
X65348Y122809
T6
X51968Y136703
X68580Y151181
X59588Y132588
X60503Y133198
X70714Y143104
X61112Y134722
X70714Y140513
X45720Y140970
X45720Y142494
X60198Y137617
X61112Y138532
X59893Y142342
X38710Y139598
X43586Y141580
X43739Y144932
X44501Y149504
X36119Y147523
X43586Y136398
X32309Y148133
X38710Y150724
X34595Y148590
X40081Y131978
X43586Y135026
X36576Y148895
X38405Y148742
X41605Y148895
X39472Y144932
X43129Y148590
X42367Y149504
X39319Y145847
X62789Y125425
X52883Y125425
X45720Y150876
X46330Y138227
X41910Y130454
X43129Y151790
X38710Y142799
X43586Y144018
X62332Y126492
X42672Y126340
X40234Y125273
X54254Y151333
X53035Y151333
X52578Y139294
X51968Y134112
X51206Y147066
X58217Y140208
X65227Y148133
X65380Y146914
X48158Y137617
X48463Y143256
X51206Y132588
X46939Y149200
X53035Y140970
X44958Y144628
X41910Y145694
X38710Y136093
X41300Y132283
X44501Y125882
X70714Y149962
X64465Y146914
X68580Y149504
T7
X55280Y136490
X54080Y136490
X54080Y137690
X55280Y137690
X56480Y137690
X57680Y137690
X57680Y136490
X56480Y136490
X54080Y135290
X55280Y135290
X56480Y135290
X57680Y135290
X57680Y134090
X56480Y134090
X55280Y134090
X54080Y134090
M30